<svg width="18" height="18" viewBox="0 0 18 18" fill="none" xmlns="http://www.w3.org/2000/svg">
<path d="M16.875 16.0875L15.3 14.5125C15.5813 14.0625 15.75 13.5 15.75 12.9375C15.75 11.3625 14.5125 10.125 12.9375 10.125C11.3625 10.125 10.125 11.3625 10.125 12.9375C10.125 14.5125 11.3625 15.75 12.9375 15.75C13.5 15.75 14.0625 15.5813 14.5125 15.3L16.0875 16.875L16.875 16.0875ZM11.25 12.9375C11.25 11.9812 11.9812 11.25 12.9375 11.25C13.8938 11.25 14.625 11.9812 14.625 12.9375C14.625 13.8938 13.8938 14.625 12.9375 14.625C11.9812 14.625 11.25 13.8938 11.25 12.9375ZM4.5 9H10.125V10.125H4.5V9ZM4.5 5.625H11.25V6.75H4.5V5.625Z" fill="#1F1F1F"/>
<path d="M7.875 15.5813L4.95 14.0062C3.2625 13.1625 2.25 11.4187 2.25 9.5625V2.25H13.5V8.4375H14.625V2.25C14.625 1.63125 14.1188 1.125 13.5 1.125H2.25C1.63125 1.125 1.125 1.63125 1.125 2.25V9.5625C1.125 11.8687 2.3625 13.95 4.3875 15.0188L7.875 16.875V15.5813Z" fill="#1F1F1F"/>
</svg>
