<svg width="24" height="24" viewBox="0 0 24 24" fill="none" xmlns="http://www.w3.org/2000/svg">
<path d="M17.423 16.304V20.019C17.423 20.127 17.4603 20.218 17.535 20.292C17.609 20.3667 17.7 20.404 17.808 20.404C17.916 20.404 18.007 20.3667 18.081 20.292C18.155 20.2173 18.192 20.1263 18.192 20.019V16.304L19.719 17.831C19.7937 17.905 19.8817 17.9453 19.983 17.952C20.0837 17.9587 20.1777 17.9183 20.265 17.831C20.3523 17.7437 20.396 17.6527 20.396 17.558C20.396 17.4633 20.3527 17.3723 20.266 17.285L18.373 15.392C18.2117 15.2307 18.0233 15.15 17.808 15.15C17.592 15.15 17.4033 15.2307 17.242 15.392L15.35 17.285C15.276 17.359 15.2357 17.4467 15.229 17.548C15.2223 17.6493 15.2627 17.7437 15.35 17.831C15.4373 17.9183 15.5283 17.9617 15.623 17.961C15.7183 17.961 15.8093 17.9177 15.896 17.831L17.423 16.304ZM11.887 20C10.7337 19.996 9.677 19.9147 8.717 19.756C7.757 19.5967 6.927 19.3767 6.227 19.096C5.527 18.814 4.98067 18.4773 4.588 18.086C4.19533 17.6947 3.99934 17.2687 4 16.808C4 17.268 4.19634 17.6937 4.589 18.085C4.98167 18.4763 5.52767 18.813 6.227 19.095C6.92634 19.377 7.75634 19.597 8.717 19.755C9.677 19.915 10.7337 19.9967 11.887 20ZM12.05 14.923C11.468 14.915 10.8587 14.8867 10.222 14.838C9.58534 14.7893 8.95867 14.702 8.342 14.576C7.72534 14.45 7.12933 14.2913 6.554 14.1C5.97867 13.9087 5.46067 13.6657 5 13.371C5.46 13.6643 5.978 13.9073 6.554 14.1C7.12933 14.2927 7.72534 14.4513 8.342 14.576C8.95867 14.7007 9.58534 14.788 10.222 14.838C10.8587 14.888 11.468 14.9163 12.05 14.923ZM12 8.89C13.432 8.89 14.8753 8.68833 16.33 8.285C17.786 7.88233 18.6567 7.44933 18.942 6.986C18.6687 6.49 17.812 6.035 16.372 5.621C14.932 5.207 13.4747 5 12 5C10.5473 5 9.092 5.19967 7.634 5.599C6.176 5.99833 5.30434 6.435 5.019 6.909C5.291 7.39767 6.14967 7.85 7.595 8.266C9.041 8.68267 10.5093 8.89 12 8.89ZM14.972 20.451C14.196 19.675 13.808 18.73 13.808 17.616C13.808 16.502 14.196 15.5567 14.972 14.78C15.748 14.0033 16.6933 13.6153 17.808 13.616C18.9213 13.616 19.8663 14.004 20.643 14.78C21.4197 15.556 21.808 16.5013 21.808 17.616C21.808 18.7293 21.4197 19.6743 20.643 20.451C19.8663 21.2277 18.9213 21.616 17.808 21.616C16.6933 21.616 15.748 21.2277 14.972 20.451ZM11.575 18.994C11.6123 19.1813 11.6587 19.3553 11.714 19.516C11.7687 19.676 11.8263 19.8373 11.887 20C10.7337 19.996 9.677 19.9147 8.717 19.756C7.757 19.5967 6.927 19.3767 6.227 19.096C5.527 18.814 4.981 18.4773 4.589 18.086C4.197 17.6947 4.00067 17.2687 4 16.808V7C4 6.16933 4.78 5.46167 6.34 4.877C7.9 4.29233 9.78667 4 12 4C14.2133 4 16.1 4.29233 17.66 4.877C19.22 5.46167 20 6.16933 20 7V11.617C19.8373 11.557 19.676 11.5057 19.516 11.463C19.3553 11.421 19.1833 11.3813 19 11.344V8.275C18.1847 8.771 17.161 9.157 15.929 9.433C14.697 9.709 13.3873 9.84033 12 9.827C10.5573 9.827 9.22667 9.68933 8.008 9.414C6.788 9.138 5.78534 8.75833 5 8.275V12.262C5.786 12.8147 6.803 13.2297 8.051 13.507C9.299 13.7843 10.6153 13.923 12 13.923H12.602C12.488 14.0823 12.387 14.242 12.299 14.402C12.211 14.562 12.128 14.7357 12.05 14.923C10.8727 14.9203 9.63667 14.808 8.342 14.586C7.04734 14.3633 5.93334 13.958 5 13.37V17C5.18067 17.2807 5.469 17.5433 5.865 17.788C6.261 18.032 6.744 18.2383 7.314 18.407C7.88267 18.5757 8.53034 18.7127 9.257 18.818C9.98367 18.9233 10.7563 18.982 11.575 18.994Z" fill="#FF6B00"/>
</svg>
