<svg width="90" height="90" viewBox="0 0 90 90" fill="none" xmlns="http://www.w3.org/2000/svg">
<rect width="90" height="90" rx="10" fill="#EBEFF2"/>
<path d="M25.3135 65.6014C23.7169 63.9958 22.9185 62.0572 22.9185 59.7857H15.6023L16.3175 56.5H23.7584C24.3511 55.039 25.308 53.8517 26.6291 52.9383C27.9502 52.027 29.4473 51.5714 31.1205 51.5714C32.7938 51.5714 34.292 52.027 35.6153 52.9383C36.9341 53.8517 37.8899 55.039 38.4827 56.5H53.6334L60.8381 25.2857H24.9133L24.9887 24.9637C25.1484 24.105 25.564 23.3964 26.2354 22.8379C26.9069 22.2793 27.6987 22 28.6107 22H64.9391L62.2817 33.5H69.1025L78 45.3811L75.1588 59.7857H71.3728C71.3728 62.0616 70.5744 64.0002 68.9778 65.6014C67.3811 67.2027 65.4454 68.0022 63.1708 68C60.8961 67.9978 58.9615 67.1983 57.367 65.6014C55.7725 64.0046 54.9742 62.066 54.972 59.7857H39.3226C39.3226 62.0616 38.5242 64.0002 36.9276 65.6014C35.3309 67.2027 33.3952 68.0022 31.1205 68C28.8459 67.9978 26.9102 67.1983 25.3135 65.6014ZM58.6367 49.1071H73.899L74.4797 46.1829L67.462 36.7857H61.4975L58.6367 49.1071ZM60.0441 28.578L60.8381 25.2857L53.6302 56.5L54.4274 53.2077L57.0258 41.7209L60.0441 28.578ZM12 48.2791L12.8202 44.9934H27.5182L26.698 48.2791H12ZM18.5616 36.7923L19.3818 33.5066H37.3606L36.5404 36.7923H18.5616ZM31.1205 64.7143C32.4701 64.7143 33.6282 64.2313 34.5949 63.2653C35.5595 62.2971 36.0418 61.1372 36.0418 59.7857C36.0418 58.4342 35.5595 57.2743 34.5949 56.3061C33.6304 55.338 32.4722 54.855 31.1205 54.8571C29.7689 54.8593 28.6107 55.3423 27.6462 56.3061C26.6816 57.2743 26.1993 58.4342 26.1993 59.7857C26.1993 61.1372 26.6816 62.2971 27.6462 63.2653C28.6129 64.2313 29.771 64.7143 31.1205 64.7143ZM63.174 64.7143C64.5235 64.7143 65.6806 64.2313 66.6451 63.2653C67.6097 62.2971 68.092 61.1372 68.092 59.7857C68.092 58.4342 67.6097 57.2743 66.6451 56.3061C65.6806 55.338 64.5224 54.855 63.1708 54.8571C61.8191 54.8593 60.662 55.3423 59.6997 56.3061C58.7329 57.2743 58.2495 58.4342 58.2495 59.7857C58.2495 61.1372 58.7318 62.2971 59.6964 63.2653C60.6631 64.2313 61.8223 64.7143 63.174 64.7143Z" fill="#1F1F1F"/>
</svg>
