<svg width="18" height="18" viewBox="0 0 18 18" fill="none" xmlns="http://www.w3.org/2000/svg">
<path d="M3.75 15C4.16421 15 4.5 14.6642 4.5 14.25C4.5 13.8358 4.16421 13.5 3.75 13.5C3.33579 13.5 3 13.8358 3 14.25C3 14.6642 3.33579 15 3.75 15Z" fill="#1F1F1F"/>
<path d="M3 3H4.5V9.75H3V3Z" fill="#1F1F1F"/>
<path d="M5.25 1.5H2.25C2.05109 1.5 1.86032 1.57902 1.71967 1.71967C1.57902 1.86032 1.5 2.05109 1.5 2.25V15.75C1.5 15.9489 1.57902 16.1397 1.71967 16.2803C1.86032 16.421 2.05109 16.5 2.25 16.5H5.25C5.44891 16.5 5.63968 16.421 5.78033 16.2803C5.92098 16.1397 6 15.9489 6 15.75V2.25C6 2.05109 5.92098 1.86032 5.78033 1.71967C5.63968 1.57902 5.44891 1.5 5.25 1.5ZM5.25 15.75H2.25V2.25H5.25V15.75Z" fill="#1F1F1F"/>
<path d="M9 15C9.41421 15 9.75 14.6642 9.75 14.25C9.75 13.8358 9.41421 13.5 9 13.5C8.58579 13.5 8.25 13.8358 8.25 14.25C8.25 14.6642 8.58579 15 9 15Z" fill="#1F1F1F"/>
<path d="M8.25 3H9.75V9.75H8.25V3Z" fill="#1F1F1F"/>
<path d="M10.5 1.5H7.5C7.30109 1.5 7.11032 1.57902 6.96967 1.71967C6.82902 1.86032 6.75 2.05109 6.75 2.25V15.75C6.75 15.9489 6.82902 16.1397 6.96967 16.2803C7.11032 16.421 7.30109 16.5 7.5 16.5H10.5C10.6989 16.5 10.8897 16.421 11.0303 16.2803C11.171 16.1397 11.25 15.9489 11.25 15.75V2.25C11.25 2.05109 11.171 1.86032 11.0303 1.71967C10.8897 1.57902 10.6989 1.5 10.5 1.5ZM10.5 15.75H7.5V2.25H10.5V15.75Z" fill="#1F1F1F"/>
<path d="M14.25 15C14.6642 15 15 14.6642 15 14.25C15 13.8358 14.6642 13.5 14.25 13.5C13.8358 13.5 13.5 13.8358 13.5 14.25C13.5 14.6642 13.8358 15 14.25 15Z" fill="#1F1F1F"/>
<path d="M13.5 3H15V9.75H13.5V3Z" fill="#1F1F1F"/>
<path d="M15.75 1.5H12.75C12.5511 1.5 12.3603 1.57902 12.2197 1.71967C12.079 1.86032 12 2.05109 12 2.25V15.75C12 15.9489 12.079 16.1397 12.2197 16.2803C12.3603 16.421 12.5511 16.5 12.75 16.5H15.75C15.9489 16.5 16.1397 16.421 16.2803 16.2803C16.421 16.1397 16.5 15.9489 16.5 15.75V2.25C16.5 2.05109 16.421 1.86032 16.2803 1.71967C16.1397 1.57902 15.9489 1.5 15.75 1.5ZM15.75 15.75H12.75V2.25H15.75V15.75Z" fill="#1F1F1F"/>
</svg>
