<svg width="18" height="18" viewBox="0 0 18 18" fill="none" xmlns="http://www.w3.org/2000/svg">
<path d="M16.3747 2.23242H13.717C13.6638 2.23242 13.6128 2.25357 13.5751 2.29121C13.5375 2.32884 13.5163 2.37989 13.5163 2.43312C13.5163 2.46732 13.5271 2.49792 13.542 2.52582V4.05492C13.542 4.11096 13.531 4.16646 13.5096 4.21825C13.4882 4.27003 13.4568 4.31708 13.4172 4.35671C13.3775 4.39633 13.3305 4.42775 13.2787 4.44917C13.2269 4.47059 13.1714 4.48158 13.1154 4.48152H12.2883C12.2363 4.48152 12.1848 4.47128 12.1367 4.45138C12.0887 4.43148 12.045 4.40231 12.0083 4.36554C11.9715 4.32876 11.9423 4.28511 11.9224 4.23706C11.9025 4.18902 11.8923 4.13753 11.8923 4.08552V2.55057C11.9187 2.51701 11.9335 2.47581 11.9346 2.43312C11.9346 2.40675 11.9295 2.38062 11.9194 2.35625C11.9094 2.33187 11.8946 2.30972 11.8759 2.29107C11.8573 2.27243 11.8351 2.25764 11.8108 2.24758C11.7864 2.23751 11.7603 2.23236 11.7339 2.23242H6.37663C6.3234 2.23242 6.27235 2.25357 6.23472 2.29121C6.19708 2.32884 6.17593 2.37989 6.17593 2.43312C6.17593 2.46417 6.18448 2.49252 6.19708 2.51907V4.06572C6.19708 4.12039 6.18632 4.17451 6.1654 4.22501C6.14448 4.27552 6.11382 4.3214 6.07516 4.36006C6.03651 4.39871 5.99063 4.42937 5.94012 4.45029C5.88962 4.47121 5.83549 4.48197 5.78083 4.48197H5.04643C4.93496 4.48197 4.82806 4.43769 4.74923 4.35887C4.67041 4.28005 4.62613 4.17314 4.62613 4.06167V2.53032C4.64404 2.50101 4.65383 2.46746 4.65448 2.43312C4.65454 2.40675 4.64939 2.38062 4.63932 2.35625C4.62926 2.33187 4.61448 2.30972 4.59583 2.29107C4.57718 2.27243 4.55503 2.25764 4.53066 2.24758C4.50628 2.23751 4.48015 2.23236 4.45378 2.23242H1.65343C1.53515 2.23254 1.42175 2.27955 1.33807 2.36314C1.25439 2.44674 1.20727 2.56009 1.20703 2.67837V15.9687C1.20703 16.2153 1.40728 16.4155 1.65343 16.4155H16.3747C16.4931 16.4153 16.6065 16.3681 16.6901 16.2843C16.7737 16.2006 16.8207 16.087 16.8207 15.9687V2.67837C16.8204 2.56017 16.7734 2.44688 16.6898 2.3633C16.6062 2.27972 16.4929 2.23266 16.3747 2.23242ZM16.3747 16.0141H1.65343C1.64748 16.0141 1.6416 16.0129 1.63611 16.0107C1.63062 16.0084 1.62564 16.005 1.62145 16.0008C1.61727 15.9966 1.61396 15.9915 1.61173 15.986C1.60949 15.9805 1.60837 15.9746 1.60843 15.9687V5.94582H16.4193V15.9682C16.4194 15.9742 16.4183 15.9801 16.4162 15.9856C16.414 15.9911 16.4107 15.9962 16.4066 16.0005C16.4024 16.0047 16.3975 16.0081 16.392 16.0105C16.3866 16.0128 16.3807 16.0141 16.3747 16.0141Z" fill="#1F1F1F"/>
<path d="M5.46633 4.02433C5.57703 4.02433 5.66703 3.93433 5.66703 3.82363V1.12453C5.66703 1.09817 5.66183 1.07207 5.65175 1.04772C5.64166 1.02337 5.62688 1.00125 5.60824 0.982612C5.5896 0.963975 5.56748 0.949192 5.54313 0.939106C5.51878 0.929019 5.49268 0.923828 5.46633 0.923828C5.43997 0.923828 5.41387 0.929019 5.38952 0.939106C5.36517 0.949192 5.34305 0.963975 5.32441 0.982612C5.30577 1.00125 5.29099 1.02337 5.2809 1.04772C5.27082 1.07207 5.26562 1.09817 5.26563 1.12453V3.82408C5.26563 3.93478 5.35563 4.02433 5.46633 4.02433ZM12.7356 4.02433C12.8463 4.02433 12.9363 3.93433 12.9363 3.82363V1.12453C12.9363 1.09817 12.9311 1.07207 12.921 1.04772C12.911 1.02337 12.8962 1.00125 12.8775 0.982612C12.8589 0.963975 12.8368 0.949192 12.8124 0.939106C12.7881 0.929019 12.762 0.923828 12.7356 0.923828C12.7093 0.923828 12.6832 0.929019 12.6588 0.939106C12.6345 0.949192 12.6123 0.963975 12.5937 0.982612C12.5751 1.00125 12.5603 1.02337 12.5502 1.04772C12.5401 1.07207 12.5349 1.09817 12.5349 1.12453V3.82408C12.5349 3.93478 12.6245 4.02433 12.7356 4.02433Z" fill="#1F1F1F"/>
<path d="M4.42837 8.98173C5.03925 8.98173 5.53447 8.48651 5.53447 7.87563C5.53447 7.26475 5.03925 6.76953 4.42837 6.76953C3.81748 6.76953 3.32227 7.26475 3.32227 7.87563C3.32227 8.48651 3.81748 8.98173 4.42837 8.98173Z" fill="#1F1F1F"/>
<path d="M7.60805 8.98173C8.21894 8.98173 8.71415 8.48651 8.71415 7.87563C8.71415 7.26475 8.21894 6.76953 7.60805 6.76953C6.99717 6.76953 6.50195 7.26475 6.50195 7.87563C6.50195 8.48651 6.99717 8.98173 7.60805 8.98173Z" fill="#1F1F1F"/>
<path d="M10.7858 8.98173C11.3967 8.98173 11.8919 8.48651 11.8919 7.87563C11.8919 7.26475 11.3967 6.76953 10.7858 6.76953C10.1749 6.76953 9.67969 7.26475 9.67969 7.87563C9.67969 8.48651 10.1749 8.98173 10.7858 8.98173Z" fill="#1F1F1F"/>
<path d="M4.42837 12.0618C5.03925 12.0618 5.53447 11.5666 5.53447 10.9557C5.53447 10.3448 5.03925 9.84961 4.42837 9.84961C3.81748 9.84961 3.32227 10.3448 3.32227 10.9557C3.32227 11.5666 3.81748 12.0618 4.42837 12.0618Z" fill="#1F1F1F"/>
<path d="M7.60805 12.0618C8.21894 12.0618 8.71415 11.5666 8.71415 10.9557C8.71415 10.3448 8.21894 9.84961 7.60805 9.84961C6.99717 9.84961 6.50195 10.3448 6.50195 10.9557C6.50195 11.5666 6.99717 12.0618 7.60805 12.0618Z" fill="#1F1F1F"/>
<path d="M10.7858 12.0618C11.3967 12.0618 11.8919 11.5666 11.8919 10.9557C11.8919 10.3448 11.3967 9.84961 10.7858 9.84961C10.1749 9.84961 9.67969 10.3448 9.67969 10.9557C9.67969 11.5666 10.1749 12.0618 10.7858 12.0618Z" fill="#1F1F1F"/>
<path d="M4.42837 15.1429C5.03925 15.1429 5.53447 14.6476 5.53447 14.0368C5.53447 13.4259 5.03925 12.9307 4.42837 12.9307C3.81748 12.9307 3.32227 13.4259 3.32227 14.0368C3.32227 14.6476 3.81748 15.1429 4.42837 15.1429Z" fill="#1F1F1F"/>
<path d="M7.60805 15.1429C8.21894 15.1429 8.71415 14.6476 8.71415 14.0368C8.71415 13.4259 8.21894 12.9307 7.60805 12.9307C6.99717 12.9307 6.50195 13.4259 6.50195 14.0368C6.50195 14.6476 6.99717 15.1429 7.60805 15.1429Z" fill="#1F1F1F"/>
<path d="M10.7858 15.1429C11.3967 15.1429 11.8919 14.6476 11.8919 14.0368C11.8919 13.4259 11.3967 12.9307 10.7858 12.9307C10.1749 12.9307 9.67969 13.4259 9.67969 14.0368C9.67969 14.6476 10.1749 15.1429 10.7858 15.1429Z" fill="#1F1F1F"/>
<path d="M13.8893 8.98173C14.5002 8.98173 14.9954 8.48651 14.9954 7.87563C14.9954 7.26475 14.5002 6.76953 13.8893 6.76953C13.2784 6.76953 12.7832 7.26475 12.7832 7.87563C12.7832 8.48651 13.2784 8.98173 13.8893 8.98173Z" fill="#1F1F1F"/>
<path d="M13.8893 12.0618C14.5002 12.0618 14.9954 11.5666 14.9954 10.9557C14.9954 10.3448 14.5002 9.84961 13.8893 9.84961C13.2784 9.84961 12.7832 10.3448 12.7832 10.9557C12.7832 11.5666 13.2784 12.0618 13.8893 12.0618Z" fill="#1F1F1F"/>
<path d="M13.8893 15.1429C14.5002 15.1429 14.9954 14.6476 14.9954 14.0368C14.9954 13.4259 14.5002 12.9307 13.8893 12.9307C13.2784 12.9307 12.7832 13.4259 12.7832 14.0368C12.7832 14.6476 13.2784 15.1429 13.8893 15.1429Z" fill="#1F1F1F"/>
</svg>
